HIERARCHY
ROOT hip
{
	OFFSET 0.000000 0.000000 0.000000
	CHANNELS 6 Xposition Yposition Zposition Xrotation Zrotation Yrotation 
	JOINT abdomen
	{
		OFFSET 0.000000 3.422050 0.000000
		CHANNELS 3 Xrotation Zrotation Yrotation 
		JOINT chest
		{
			OFFSET 0.000000 8.486693 -0.684411
			CHANNELS 3 Xrotation Zrotation Yrotation 
			JOINT neck
			{
				OFFSET 0.000000 10.266162 -0.273764
				CHANNELS 3 Xrotation Zrotation Yrotation 
				JOINT head
				{
					OFFSET 0.000000 3.148285 0.000000
					CHANNELS 3 Xrotation Zrotation Yrotation 
					End Site
					{
						OFFSET 0.000000 3.148289 0.000000
					}
				}
			}
			JOINT lCollar
			{
				OFFSET 3.422053 6.707223 -0.821293
				CHANNELS 3 Yrotation Zrotation Xrotation 
				JOINT lShldr
				{
					OFFSET 3.285171 0.000000 0.000000
					CHANNELS 3 Zrotation Yrotation Xrotation 
					JOINT lForeArm
					{
						OFFSET 10.129278 0.000000 0.000000
						CHANNELS 3 Yrotation Zrotation Xrotation 
						JOINT lHand
						{
							OFFSET 8.486692 0.000000 0.000000
							CHANNELS 3 Zrotation Yrotation Xrotation 
							End Site
							{
								OFFSET 4.106464 0.000000 0.000000
							}
						}
					}
				}
			}
			JOINT rCollar
			{
				OFFSET -3.558935 6.707223 -0.821293
				CHANNELS 3 Yrotation Zrotation Xrotation 
				JOINT rShldr
				{
					OFFSET -3.148289 0.000000 0.000000
					CHANNELS 3 Zrotation Yrotation Xrotation 
					JOINT rForeArm
					{
						OFFSET -10.266159 0.000000 0.000000
						CHANNELS 3 Yrotation Zrotation Xrotation 
						JOINT rHand
						{
							OFFSET -8.349810 0.000000 0.000000
							CHANNELS 3 Zrotation Yrotation Xrotation 
							End Site
							{
								OFFSET -4.106464 0.000000 0.000000
							}
						}
					}
				}
			}
		}
	}
	JOINT lThigh
	{
		OFFSET 5.338403 -1.642589 1.368821
		CHANNELS 3 Xrotation Zrotation Yrotation 
		JOINT lShin
		{
			OFFSET -2.053232 -20.121670 0.000000
			CHANNELS 3 Xrotation Zrotation Yrotation 
			JOINT lFoot
			{
				OFFSET 0.000000 -19.300380 -1.231939
				CHANNELS 3 Xrotation Yrotation Zrotation 
				End Site
				{
					OFFSET 0.000000 -2.463878 4.653993
				}
			}
		}
	}
	JOINT rThigh
	{
		OFFSET -5.338403 -1.642589 1.368821
		CHANNELS 3 Xrotation Zrotation Yrotation 
		JOINT rShin
		{
			OFFSET 2.053232 -20.121670 0.000000
			CHANNELS 3 Xrotation Zrotation Yrotation 
			JOINT rFoot
			{
				OFFSET 0.000000 -19.300380 -1.231939
				CHANNELS 3 Xrotation Yrotation Zrotation 
				End Site
				{
					OFFSET 0.000000 -2.463878 4.653993
				}
			}
		}
	}
}
MOTION
Frames: 6
Frame Time: 0.049989
-0.309380 18.551201 -16.683769 -29.147833 -0.005077 -179.998688 8.945344 -0.888307 -0.614070 -5.170027 1.566110 -0.909311 -21.978348 0.000000 0.000000 0.124147 0.330472 0.000358 -25.172428 -31.647156 14.631170 -42.141186 -19.029909 -6.764793 -36.021870 5.556968 -0.876356 -8.532683 -6.938468 1.670376 -30.599562 33.121292 24.772694 47.126972 -6.732043 55.930870 45.355083 0.073623 -79.444839 28.297218 13.531671 -47.370266 -58.231831 53.106300 28.137669 122.640594 46.009651 -13.640565 55.029140 -3.564958 -21.397530 -58.268433 -53.134262 -28.185349 122.751999 -46.035244 13.572955 55.542976 3.721079 21.343750 
-0.309380 18.568022 -16.507549 -29.184723 -0.005076 -179.998688 8.539359 -0.871600 -0.601600 -3.645073 1.597641 -0.878454 -21.465595 0.000000 0.000000 0.124147 0.330472 0.000358 -25.615498 -30.508505 13.361588 -42.596981 -19.165556 -6.576400 -36.546875 5.422952 -0.839689 -8.468876 -6.515472 1.460624 -29.363594 33.340614 24.131439 47.053444 -6.131742 55.957733 45.355083 0.073623 -79.444839 26.608168 12.047791 -47.692734 -59.279682 52.708057 27.402941 123.030174 45.895657 -13.350089 55.207817 -3.746210 -21.672907 -59.311615 -52.739479 -27.450928 123.131561 -45.923042 13.288783 55.720863 3.909394 21.615974 
-0.309380 18.584845 -16.331327 -29.221615 -0.005076 -179.998688 8.133320 -0.854803 -0.589247 -2.117083 1.628399 -0.846705 -20.952431 0.000000 0.000000 0.124147 0.330472 0.000358 -26.025290 -29.359346 12.114009 -43.053711 -19.299805 -6.386688 -37.071804 5.288573 -0.804256 -8.406663 -6.092166 1.251479 -28.120543 33.548470 23.482460 46.980255 -5.531231 55.983803 45.355083 0.073623 -79.444839 24.929405 10.549050 -47.969963 -60.310040 52.301651 26.686605 123.418175 45.780293 -13.061310 55.385689 -3.928339 -21.947815 -60.337456 -52.336571 -26.734709 123.509544 -45.809517 13.006239 55.897903 4.098572 21.887703 
-0.309380 18.601665 -16.155107 -29.258512 -0.005075 -179.998688 7.727243 -0.837916 -0.577013 -0.586593 1.658347 -0.814094 -20.438866 0.000000 0.000000 0.124147 0.330472 0.000358 -26.402721 -28.200762 10.887380 -43.511337 -19.432632 -6.195662 -37.596645 5.153849 -0.770062 -8.346045 -5.668574 1.042922 -26.870852 33.744648 22.826180 46.907387 -4.930528 56.009083 45.355083 0.073623 -79.444839 23.259886 9.037826 -48.202091 -61.323044 51.887363 25.988501 123.804558 45.663567 -12.774231 55.562744 -4.111336 -22.222242 -61.346111 -51.925838 -26.036537 123.886002 -45.694702 12.725337 56.074127 4.288607 22.158949 
-0.309380 18.618488 -15.978888 -29.295399 -0.005075 -179.998672 7.321132 -0.820942 -0.564897 0.945855 1.687449 -0.780650 -19.924927 0.000000 0.000000 0.124147 0.330472 0.000358 -26.748692 -27.033827 9.680657 -43.969872 -19.564043 -6.003340 -38.121372 5.018799 -0.737110 -8.287009 -5.244715 0.834938 -25.614996 33.928940 22.163036 46.834835 -4.329680 56.033581 45.355083 0.073623 -79.444839 21.598518 7.516515 -48.389259 -62.318867 51.465488 25.308470 124.189301 45.545490 -12.488877 55.738968 -4.295189 -22.496189 -62.337791 -51.507584 -25.356262 124.260880 -45.578598 12.446085 56.249485 4.479483 22.429688 
-0.309380 18.635309 -15.802668 -29.332289 -0.005075 -179.998672 6.915004 -0.803881 -0.552902 2.479714 1.715672 -0.746409 -19.410635 0.000000 0.000000 0.124147 0.330472 0.000358 -27.064077 -25.859608 8.492845 -44.429268 -19.693993 -5.809735 -38.645981 4.883440 -0.705404 -8.229553 -4.820610 0.627511 -24.353474 34.101170 21.493498 46.762589 -3.728719 56.057304 45.355083 0.073623 -79.444839 19.944223 5.987556 -48.531662 -63.297688 51.036327 24.646328 124.572418 45.426079 -12.205250 55.914360 -4.479892 -22.769646 -63.312611 -51.082058 -24.693693 124.634178 -45.461212 12.168489 56.424000 4.671194 22.699930 
